<?xml version="1.0" encoding="UTF-8"?>
<svg id="Edit" xmlns="http://www.w3.org/2000/svg" viewBox="0 0 612.08 172.69">
  <defs>
    <style>
      .cls-1 {
        fill: #fff;
      }
    </style>
  </defs>
  <g>
    <path d="m200.83,113.65c0-15.12,9.79-27.33,25.39-27.33,12.5,0,20.64,7.07,22.48,18.22h-9.01c-1.26-6.78-5.91-10.95-13.47-10.95-10.66,0-16.18,8.82-16.18,20.06s5.52,20.06,16.18,20.06c8.14,0,12.99-4.75,13.67-12.5h8.92c-1.16,12.41-9.4,19.87-22.58,19.87-15.6,0-25.39-12.21-25.39-27.43Z"/>
    <g>
      <path d="m308.45,94.94h.29c3.78-5.23,8.92-8.63,16.48-8.63,10.85,0,17.54,6.11,17.54,16.96v36.34h-8.92v-35.28c0-6.69-4.36-10.47-11.44-10.47-8.04,0-13.86,5.72-13.86,14.05v31.69h-9.01v-52.04h8.92v7.37Z"/>
      <path d="m349.72,125.86c0-12.11,8.92-14.73,22.39-16.38,7.66-.87,12.6-2.13,12.6-7.46,0-5.62-3.97-9.11-11.15-9.11-8.24,0-12.21,3.88-12.5,10.08h-8.72c.39-8.82,7.07-16.67,21.13-16.67,4.94,0,9.3.87,12.6,2.81,4.36,2.62,6.98,7.17,6.98,14.15v24.33c0,4.17.97,6.4,5.52,5.43h.39v6.3c-1.26.39-2.71.78-4.85.78-5.52,0-8.24-2.62-9.21-8.14h-.1c-3.29,4.55-8.63,8.72-17.44,8.72-9.89,0-17.64-4.85-17.64-14.83Zm35.08-5.43v-8.53c-2.62,1.65-7.17,2.91-11.44,3.68-8.53,1.45-14.15,3-14.15,10.18,0,6.69,5.14,8.33,10.37,8.33,10.37,0,15.22-7.66,15.22-13.67Z"/>
      <path d="m436.16,139.62v-7.27h-.19c-3.68,5.14-8.24,8.43-15.7,8.43-10.76,0-17.64-6.49-17.64-17.35v-35.86h9.01v35.37c0,6.59,4.17,10.47,11.34,10.47,7.95,0,13.08-6.11,13.08-14.15v-31.69h9.01v52.04h-8.92Z"/>
      <path d="m453.8,143.21h8.43c.78,5.43,6.01,7.66,13.76,7.66,9.3,0,14.44-4.17,14.44-12.99v-1.45c0-3,.1-5.82.19-7.46h-.19c-3.59,5.14-8.14,8.33-15.51,8.33-13.28,0-22.78-10.37-22.78-25.49,0-15.99,10.08-25.49,22.29-25.49,7.46,0,12.5,2.91,15.8,8.14h.19v-6.88h8.92v49.91c0,6.88-2.33,12.02-6.3,15.41-4.07,3.39-9.89,4.94-16.86,4.94-13.66,0-21.42-5.43-22.39-14.63Zm37.22-31.79c0-10.95-4.94-17.64-15.31-17.64-9.5,0-14.34,7.17-14.34,18.12s5.04,18.03,14.44,18.03c11.34,0,15.22-7.95,15.22-18.51Z"/>
      <path d="m517.18,95.14h.29c3.88-5.52,9.11-8.82,16.67-8.82,10.85,0,17.54,6.11,17.54,16.96v36.34h-8.92v-35.28c0-6.69-4.36-10.47-11.44-10.47-8.04,0-13.86,5.72-13.86,14.05v31.69h-9.01v-72.1h9.01v18.9c0,2.62-.19,6.2-.29,8.72Z"/>
      <path d="m555.83,87.58h8.14v-16.38h8.92v16.38h10.76v6.98h-10.76v32.85c0,3.78,2.04,4.85,5.33,4.85,1.55,0,3.59-.39,4.55-.68h.29v7.56c-2.42.58-4.94.87-7.27.87-6.98-.1-11.82-2.91-11.82-10.56v-34.89h-8.14v-6.98Z"/>
    </g>
    <rect x="269.86" y="84.53" width="5.57" height="59.14" transform="translate(96.45 -123.19) rotate(30.7)"/>
  </g>
  <g>
    <rect width="172.69" height="172.69" rx="34.72" ry="34.72"/>
    <g>
      <path class="cls-1" d="m62.97,131.71c-12.95,0-21.41-10.36-21.41-25.72s7.68-25.81,21.32-25.81c9.84,0,15.97,5.27,17.44,13.12h8.8c-.86-6.13-3.63-11.39-8.2-15.11-4.32-3.54-10.36-5.7-17.87-5.7-19.08,0-30.47,14.59-30.47,33.49s11.91,33.41,30.21,33.41c8.29,0,14.85-2.33,19.34-6.82,4.57-4.4,7.6-11.48,7.68-17.87h-8.8c-.78,9.15-6.39,17-18.04,17Z"/>
      <path class="cls-1" d="m137.45,96.66l3.93-5.79-4.28-2.9-3.76,5.55c-3.2-1.85-7.02-2.9-11.36-2.9-13.98,0-22.7,10.88-22.7,24.34,0,7.32,2.55,13.86,7.09,18.32l-3.97,5.85,4.28,2.9,3.8-5.6c3.24,1.89,7.11,2.96,11.5,2.96,13.98,0,22.53-10.88,22.53-24.43,0-7.3-2.52-13.84-7.05-18.3Zm-29.98,18.3c0-10.01,4.92-17.95,14.42-17.95,2.99,0,5.53.79,7.6,2.19l-18.83,27.77c-2.1-3.15-3.18-7.34-3.18-12Zm14.42,17.87c-2.96,0-5.47-.76-7.53-2.12l18.81-27.73c2.07,3.16,3.14,7.34,3.14,11.98,0,10.01-4.92,17.87-14.42,17.87Z"/>
    </g>
  </g>
</svg>