<?xml version="1.0" encoding="UTF-8"?>
<svg id="Edit" xmlns="http://www.w3.org/2000/svg" viewBox="0 0 172.69 172.69">
  <defs>
    <style>
      .cls-1 {
        fill: #fff;
      }
    </style>
  </defs>
  <rect width="172.69" height="172.69" rx="34.72" ry="34.72"/>
  <g>
    <path class="cls-1" d="m62.97,131.71c-12.95,0-21.41-10.36-21.41-25.72s7.68-25.81,21.32-25.81c9.84,0,15.97,5.27,17.44,13.12h8.8c-.86-6.13-3.63-11.39-8.2-15.11-4.32-3.54-10.36-5.7-17.87-5.7-19.08,0-30.47,14.59-30.47,33.49s11.91,33.41,30.21,33.41c8.29,0,14.85-2.33,19.34-6.82,4.57-4.4,7.6-11.48,7.68-17.87h-8.8c-.78,9.15-6.39,17-18.04,17Z"/>
    <path class="cls-1" d="m137.45,96.66l3.93-5.79-4.28-2.9-3.76,5.55c-3.2-1.85-7.02-2.9-11.36-2.9-13.98,0-22.7,10.88-22.7,24.34,0,7.32,2.55,13.86,7.09,18.32l-3.97,5.85,4.28,2.9,3.8-5.6c3.24,1.89,7.11,2.96,11.5,2.96,13.98,0,22.53-10.88,22.53-24.43,0-7.3-2.52-13.84-7.05-18.3Zm-29.98,18.3c0-10.01,4.92-17.95,14.42-17.95,2.99,0,5.53.79,7.6,2.19l-18.83,27.77c-2.1-3.15-3.18-7.34-3.18-12Zm14.42,17.87c-2.96,0-5.47-.76-7.53-2.12l18.81-27.73c2.07,3.16,3.14,7.34,3.14,11.98,0,10.01-4.92,17.87-14.42,17.87Z"/>
  </g>
</svg>